<mxfile host="app.diagrams.net" modified="2023-05-28T06:01:33.490Z" agent="Mozilla/5.0 (Macintosh; Intel Mac OS X 10_15_7) AppleWebKit/605.1.15 (KHTML, like Gecko) Version/16.5 Safari/605.1.15" version="21.3.4" etag="CPDIVjaweHH9pORJJrEi" type="github">
  <diagram name="Page-1" id="hyXjRzs7N0lxaYraACow">
    <mxGraphModel>
      <root>
        <mxCell id="0" />
        <mxCell id="1" parent="0" />
      </root>
    </mxGraphModel>
  </diagram>
</mxfile>
